<svg xmlns="http://www.w3.org/2000/svg" width="500" height="378" viewBox="0 0 500 378" version="1.1"><path d="M 207.500 48.012 C 198.586 49.915, 197.062 52.376, 186.031 82.671 L 176.263 109.500 147.881 110 C 120.624 110.480, 119.311 110.593, 114.723 112.852 C 109.558 115.396, 105.990 119.385, 103.455 125.453 C 102.157 128.561, 101.869 132.917, 101.957 148.149 L 102.065 167 98.783 167.006 C 89.632 167.021, 82.107 172.174, 80.043 179.839 C 79.004 183.699, 80.145 190.249, 93.442 256.779 C 101.435 296.776, 108.199 331.290, 108.471 333.478 C 109.585 342.423, 113.339 358.732, 115.063 362.116 C 118.153 368.185, 121.797 371.742, 128.200 374.942 L 134.319 378 250.410 377.990 L 366.500 377.980 371.500 375.644 C 377.408 372.883, 383.229 367.173, 385.875 361.542 C 387.790 357.467, 391.609 340.329, 392.458 332 C 392.710 329.525, 399.235 296.169, 406.958 257.876 C 414.681 219.583, 421 186.322, 421 183.964 C 421 174.732, 414.331 168.352, 403.365 167.094 L 398.191 166.500 404.637 148.759 C 410.614 132.306, 411.005 130.731, 410.015 127.055 C 408.244 120.478, 402.058 114.619, 395.629 113.430 C 394.458 113.213, 353.931 98.612, 305.569 80.982 C 257.206 63.353, 216.031 48.578, 214.069 48.150 C 212.106 47.722, 209.150 47.660, 207.500 48.012 M 208.413 60.043 C 206.486 60.756, 199.213 79.891, 168.237 165.750 C 167.909 166.660, 169.390 167, 173.676 167 L 179.567 167 196.031 121.824 C 205.086 96.977, 213.091 76.052, 213.819 75.324 C 214.547 74.596, 216.144 74, 217.368 74 C 221.038 74, 381.379 132.846, 382.750 134.696 C 384.561 137.139, 384.483 137.508, 379 152.500 C 376.250 160.019, 374 166.358, 374 166.586 C 374 166.814, 376.587 166.998, 379.750 166.996 L 385.500 166.993 391.893 149.355 C 399.750 127.681, 399.786 127.954, 388.500 123.793 C 362.123 114.068, 215.069 60.634, 212.991 60.020 C 211.611 59.612, 209.550 59.622, 208.413 60.043 M 220.468 88.250 C 211.297 112.696, 193.438 163, 193.931 163 C 194.303 163, 206.958 156.429, 222.053 148.397 C 245.330 136.012, 249.876 133.925, 251.975 134.662 C 253.934 135.349, 255.952 138.756, 261.664 151.015 L 268.879 166.500 279.345 166.783 L 289.810 167.066 313.394 154.462 C 328.217 146.540, 337.818 141.977, 339.239 142.179 C 341.037 142.434, 342.730 145.017, 347.500 154.781 L 353.500 167.061 357.500 166.781 L 361.500 166.500 365.899 154.233 C 368.319 147.486, 370.044 141.711, 369.732 141.399 C 369.266 140.933, 222.119 87.045, 221.219 87.011 C 221.064 87.005, 220.726 87.563, 220.468 88.250 M 117.400 125.400 L 114 128.800 113.999 148.150 L 113.997 167.500 134.727 167 L 155.457 166.500 163.166 145.500 C 167.406 133.950, 170.903 123.938, 170.938 123.250 C 170.986 122.282, 165.347 122, 145.900 122 L 120.800 122 117.400 125.400 M 277.337 126.514 C 267.682 132.302, 266.347 145.444, 274.627 153.186 C 280.220 158.416, 286.624 159.328, 293.698 155.904 C 302.899 151.450, 305.921 138.829, 299.730 130.713 C 294.431 123.766, 284.903 121.979, 277.337 126.514 M 282.655 136.829 C 278.602 141.308, 282.738 148.191, 288.229 146.103 C 292.370 144.529, 293.210 140.210, 290 137 C 287.509 134.509, 284.811 134.446, 282.655 136.829 M 230.287 157.308 L 213.073 166.500 234.183 166.770 C 245.793 166.919, 255.455 166.878, 255.653 166.680 C 255.852 166.482, 254.098 162.223, 251.757 157.217 L 247.500 148.115 230.287 157.308 M 325.013 161.367 L 315.527 166.500 327.397 166.783 C 333.926 166.938, 339.464 166.870, 339.703 166.630 C 340.296 166.037, 335.914 155.970, 335.127 156.117 C 334.782 156.181, 330.231 158.543, 325.013 161.367 M 92.428 181.079 C 90.576 183.126, 90.808 184.468, 107.371 267.343 C 116.625 313.645, 124.808 353.322, 125.556 355.514 C 127.224 360.402, 131.636 364.527, 136.697 365.933 C 141.335 367.221, 355.227 367.352, 361.858 366.071 C 366.898 365.097, 370.619 362.609, 373.616 358.209 C 375.252 355.807, 379.516 335.999, 392.433 270.801 C 401.620 224.436, 409.353 185.736, 409.619 184.801 C 409.885 183.867, 409.179 182.179, 408.051 181.051 C 406 179, 405.962 179, 250.155 179 L 94.310 179 92.428 181.079 M 238.319 214.503 C 219.890 218.509, 203.599 233.185, 197.884 250.929 L 195.686 257.752 190.411 258.933 C 180.452 261.161, 170.321 269.442, 165.249 279.500 C 155.686 298.461, 164.282 322.678, 183.825 331.840 C 189.304 334.408, 190.213 334.511, 210.143 334.821 C 230.704 335.141, 230.793 335.133, 232.393 332.849 C 234.367 330.031, 234.399 328.929, 232.582 326.441 C 231.285 324.664, 229.486 324.458, 211.332 324 C 191.922 323.511, 191.400 323.441, 186.824 320.751 C 175.050 313.830, 170.080 299.927, 174.618 286.608 C 177.779 277.331, 189.111 269, 198.567 269 C 203.323 269, 205.531 266.389, 207.371 258.587 C 211.494 241.104, 225.922 227.860, 244.133 224.842 C 266.063 221.208, 288.406 236.441, 293.629 258.587 C 295.469 266.389, 297.677 269, 302.433 269 C 311.312 269, 321.046 275.438, 325.412 284.199 C 327.471 288.332, 327.996 290.833, 327.978 296.446 C 327.942 307.871, 322.699 316.479, 312.759 321.433 C 307.827 323.891, 306.872 324, 290.369 324 C 280.888 324, 272.014 324.424, 270.651 324.943 C 267.328 326.206, 266.413 329.455, 268.487 332.621 L 270.140 335.143 290.820 334.822 C 310.993 334.508, 311.636 334.433, 317.038 331.778 C 324.552 328.084, 331.607 320.861, 335.380 313 C 338.232 307.059, 338.500 305.641, 338.500 296.500 C 338.500 287.644, 338.180 285.814, 335.700 280.500 C 330.780 269.955, 318.985 260.408, 308.421 258.421 C 305.633 257.896, 305.134 257.195, 303.131 250.974 C 294.577 224.416, 266.193 208.443, 238.319 214.503 M 234.704 277.830 C 227.167 285.437, 221 292.412, 221 293.330 C 221 295.631, 224.572 299, 227.011 299 C 228.152 299, 232.477 295.699, 237.011 291.367 L 245 283.735 245 307.712 C 245 329.672, 245.154 331.829, 246.829 333.345 C 249.228 335.516, 252.287 335.445, 254.345 333.171 C 255.787 331.578, 256 328.294, 256 307.671 C 256 294.652, 256.282 284, 256.627 284 C 256.972 284, 260.501 287.375, 264.468 291.500 C 269.075 296.290, 272.462 299, 273.841 299 C 276.404 299, 280 295.689, 280 293.330 C 280 290.811, 253.034 264, 250.500 264 C 249.138 264, 243.622 268.830, 234.704 277.830" stroke="none" fill="#2075bc" fill-rule="evenodd"/><path d="M 225.902 1.925 C 207.929 5.379, 195.442 9.636, 181 17.232 C 149.973 33.551, 124.376 61.485, 111.571 93 C 107.522 102.965, 103.545 116.431, 102.562 123.500 L 101.867 128.500 104.537 123.222 C 107.254 117.850, 111.123 114.170, 116.504 111.840 C 118.618 110.925, 127.856 110.389, 147.881 110.021 L 176.263 109.500 186.031 82.671 C 192.037 66.175, 196.705 54.873, 198.150 53.326 C 201.573 49.662, 205.653 47.833, 210.409 47.833 C 213.410 47.833, 240.198 57.165, 305.048 80.803 C 354.796 98.936, 395.642 113.644, 395.816 113.487 C 397.400 112.056, 387.139 86.325, 380.512 75.110 C 358.239 37.418, 323.383 12.349, 280.077 2.875 C 266.253 -0.149, 239.165 -0.624, 225.902 1.925 M 208.413 60.043 C 206.486 60.756, 199.213 79.891, 168.237 165.750 C 167.909 166.660, 169.390 167, 173.676 167 L 179.567 167 196.031 121.824 C 205.086 96.977, 213.091 76.052, 213.819 75.324 C 214.547 74.596, 216.144 74, 217.368 74 C 221.038 74, 381.379 132.846, 382.750 134.696 C 384.561 137.139, 384.483 137.508, 379 152.500 C 376.250 160.019, 374 166.358, 374 166.586 C 374 166.814, 376.587 166.998, 379.750 166.996 L 385.500 166.993 391.893 149.355 C 399.750 127.681, 399.786 127.954, 388.500 123.793 C 362.123 114.068, 215.069 60.634, 212.991 60.020 C 211.611 59.612, 209.550 59.622, 208.413 60.043 M 220.468 88.250 C 211.297 112.696, 193.438 163, 193.931 163 C 194.303 163, 206.958 156.429, 222.053 148.397 C 245.330 136.012, 249.876 133.925, 251.975 134.662 C 253.934 135.349, 255.952 138.756, 261.664 151.015 L 268.879 166.500 279.345 166.783 L 289.810 167.066 313.394 154.462 C 328.217 146.540, 337.818 141.977, 339.239 142.179 C 341.037 142.434, 342.730 145.017, 347.500 154.781 L 353.500 167.061 357.500 166.781 L 361.500 166.500 365.899 154.233 C 368.319 147.486, 370.044 141.711, 369.732 141.399 C 369.266 140.933, 222.119 87.045, 221.219 87.011 C 221.064 87.005, 220.726 87.563, 220.468 88.250 M 117.400 125.400 L 114 128.800 113.999 148.150 L 113.997 167.500 134.727 167 L 155.457 166.500 163.166 145.500 C 167.406 133.950, 170.903 123.938, 170.938 123.250 C 170.986 122.282, 165.347 122, 145.900 122 L 120.800 122 117.400 125.400 M 277.337 126.514 C 267.682 132.302, 266.347 145.444, 274.627 153.186 C 280.220 158.416, 286.624 159.328, 293.698 155.904 C 302.899 151.450, 305.921 138.829, 299.730 130.713 C 294.431 123.766, 284.903 121.979, 277.337 126.514 M 92.838 133.050 C 56.825 136.255, 26.402 157.094, 10.428 189.500 C -14.587 240.247, 7.221 300.449, 59.340 324.520 C 70.806 329.816, 80.851 332.081, 95.627 332.701 L 108.755 333.253 93.831 258.655 C 80.171 190.374, 79.004 183.701, 80.043 179.839 C 82.104 172.186, 89.632 167.021, 98.750 167.006 L 102 167 102 149.500 C 102 139.875, 101.888 132.063, 101.750 132.139 C 101.612 132.216, 97.602 132.626, 92.838 133.050 M 404.265 149.733 L 398.226 166.500 403.383 167.094 C 414.329 168.354, 421 174.739, 421 183.956 C 421 186.309, 414.475 220.637, 406.500 260.240 C 398.525 299.843, 392 332.473, 392 332.753 C 392 333.946, 418.964 332.059, 425 330.443 C 454.710 322.488, 479.857 301.442, 492.214 274.188 C 497.930 261.581, 500.001 250.651, 499.993 233.122 C 499.984 213.517, 498.125 204.930, 490.550 189.500 C 475.496 158.838, 449.122 139.596, 413.902 133.581 L 410.303 132.966 404.265 149.733 M 282.655 136.829 C 278.602 141.308, 282.738 148.191, 288.229 146.103 C 292.370 144.529, 293.210 140.210, 290 137 C 287.509 134.509, 284.811 134.446, 282.655 136.829 M 230.287 157.308 L 213.073 166.500 234.183 166.770 C 245.793 166.919, 255.455 166.878, 255.653 166.680 C 255.852 166.482, 254.098 162.223, 251.757 157.217 L 247.500 148.115 230.287 157.308 M 325.013 161.367 L 315.527 166.500 327.397 166.783 C 333.926 166.938, 339.464 166.870, 339.703 166.630 C 340.296 166.037, 335.914 155.970, 335.127 156.117 C 334.782 156.181, 330.231 158.543, 325.013 161.367 M 92.428 181.079 C 90.576 183.126, 90.808 184.468, 107.371 267.343 C 116.625 313.645, 124.808 353.322, 125.556 355.514 C 127.224 360.402, 131.636 364.527, 136.697 365.933 C 141.335 367.221, 355.227 367.352, 361.858 366.071 C 366.898 365.097, 370.619 362.609, 373.616 358.209 C 375.252 355.807, 379.516 335.999, 392.433 270.801 C 401.620 224.436, 409.353 185.736, 409.619 184.801 C 409.885 183.867, 409.179 182.179, 408.051 181.051 C 406 179, 405.962 179, 250.155 179 L 94.310 179 92.428 181.079 M 238.319 214.503 C 219.890 218.509, 203.599 233.185, 197.884 250.929 L 195.686 257.752 190.411 258.933 C 180.452 261.161, 170.321 269.442, 165.249 279.500 C 155.686 298.461, 164.282 322.678, 183.825 331.840 C 189.304 334.408, 190.213 334.511, 210.143 334.821 C 230.704 335.141, 230.793 335.133, 232.393 332.849 C 234.367 330.031, 234.399 328.929, 232.582 326.441 C 231.285 324.664, 229.486 324.458, 211.332 324 C 191.922 323.511, 191.400 323.441, 186.824 320.751 C 175.050 313.830, 170.080 299.927, 174.618 286.608 C 177.779 277.331, 189.111 269, 198.567 269 C 203.323 269, 205.531 266.389, 207.371 258.587 C 211.494 241.104, 225.922 227.860, 244.133 224.842 C 266.063 221.208, 288.406 236.441, 293.629 258.587 C 295.469 266.389, 297.677 269, 302.433 269 C 311.312 269, 321.046 275.438, 325.412 284.199 C 327.471 288.332, 327.996 290.833, 327.978 296.446 C 327.942 307.871, 322.699 316.479, 312.759 321.433 C 307.827 323.891, 306.872 324, 290.369 324 C 280.888 324, 272.014 324.424, 270.651 324.943 C 267.328 326.206, 266.413 329.455, 268.487 332.621 L 270.140 335.143 290.820 334.822 C 310.993 334.508, 311.636 334.433, 317.038 331.778 C 324.552 328.084, 331.607 320.861, 335.380 313 C 338.232 307.059, 338.500 305.641, 338.500 296.500 C 338.500 287.644, 338.180 285.814, 335.700 280.500 C 330.780 269.955, 318.985 260.408, 308.421 258.421 C 305.633 257.896, 305.134 257.195, 303.131 250.974 C 294.577 224.416, 266.193 208.443, 238.319 214.503 M 234.704 277.830 C 227.167 285.437, 221 292.412, 221 293.330 C 221 295.631, 224.572 299, 227.011 299 C 228.152 299, 232.477 295.699, 237.011 291.367 L 245 283.735 245 307.712 C 245 329.672, 245.154 331.829, 246.829 333.345 C 249.228 335.516, 252.287 335.445, 254.345 333.171 C 255.787 331.578, 256 328.294, 256 307.671 C 256 294.652, 256.282 284, 256.627 284 C 256.972 284, 260.501 287.375, 264.468 291.500 C 269.075 296.290, 272.462 299, 273.841 299 C 276.404 299, 280 295.689, 280 293.330 C 280 290.811, 253.034 264, 250.500 264 C 249.138 264, 243.622 268.830, 234.704 277.830" stroke="none" fill="#e9effb" fill-rule="evenodd"/></svg>