<?xml version="1.0" standalone="no"?>
<!DOCTYPE svg PUBLIC "-//W3C//DTD SVG 20010904//EN"
 "http://www.w3.org/TR/2001/REC-SVG-20010904/DTD/svg10.dtd">
<svg version="1.0" xmlns="http://www.w3.org/2000/svg"
 width="512.000000pt" height="512.000000pt" viewBox="0 0 512.000000 512.000000"
 preserveAspectRatio="xMidYMid meet">
<metadata>
Created by potrace 1.16, written by Peter Selinger 2001-2019
</metadata>
<g transform="translate(0.000000,512.000000) scale(0.100000,-0.100000)"
fill="#000000" stroke="none">
<path d="M3775 4521 c-6 -11 9 -23 19 -14 9 9 7 23 -3 23 -6 0 -12 -4 -16 -9z"/>
<path d="M3330 4500 c0 -5 7 -10 15 -10 8 0 15 5 15 10 0 6 -7 10 -15 10 -8 0
-15 -4 -15 -10z"/>
<path d="M2550 4435 c-14 -16 3 -30 24 -18 11 7 12 10 1 20 -10 10 -16 9 -25
-2z"/>
<path d="M2953 4417 c-7 -15 -19 -27 -28 -27 -22 0 -18 -14 7 -25 12 -6 25
-21 28 -35 l6 -25 15 30 c8 16 25 35 39 42 l25 13 -31 0 c-24 0 -32 6 -40 27
l-9 27 -12 -27z"/>
<path d="M1435 4365 c-78 -28 -100 -87 -99 -265 1 -176 38 -329 131 -539 5
-11 2 -13 -11 -8 -17 7 -18 1 -11 -65 11 -123 35 -186 110 -285 12 -15 -53
-86 -96 -104 -42 -17 -24 -31 29 -23 l47 6 -46 -48 c-25 -27 -65 -71 -88 -99
-46 -54 -43 -63 22 -64 l29 -1 -30 -38 c-35 -43 -82 -129 -82 -148 0 -8 19 -3
58 16 31 16 77 31 101 35 l43 6 -21 -28 c-86 -110 -137 -223 -148 -324 -3 -32
-3 -59 0 -59 3 0 16 19 30 43 22 37 97 119 97 106 0 -3 -11 -33 -24 -67 -55
-139 -93 -386 -80 -519 l6 -75 33 32 32 31 1 -108 c1 -60 7 -133 14 -163 l13
-55 24 64 c12 35 26 59 30 55 5 -5 15 -40 24 -79 9 -38 40 -137 69 -218 l53
-149 16 39 16 38 28 -55 c45 -88 148 -230 159 -219 3 3 -7 23 -23 45 -56 77
-127 212 -141 268 -14 58 -23 67 -38 40 -12 -22 -96 176 -114 268 -10 54 -15
65 -26 56 -16 -14 -31 4 -33 37 0 11 -7 0 -14 -25 -12 -45 -12 -45 -20 -16 -8
28 -1 164 11 219 8 36 -7 35 -50 -4 l-35 -30 -7 26 c-26 105 65 506 148 652
24 44 26 52 11 46 -30 -11 -114 -85 -145 -127 -35 -49 -35 -44 2 39 29 64 96
161 139 199 32 29 26 36 -36 36 l-58 1 45 40 c41 37 42 39 13 25 -18 -9 -47
-29 -65 -44 -42 -36 -80 -62 -91 -62 -14 0 55 93 111 149 29 29 45 50 35 46
-10 -4 -43 -10 -73 -13 l-54 -5 41 49 c136 162 282 270 457 341 l61 24 -46 -5
c-91 -10 -151 -39 -323 -159 -53 -37 -64 -34 -27 9 l32 35 -31 39 c-42 53 -79
138 -90 207 -13 78 -11 95 6 56 16 -37 29 -45 19 -11 -6 16 -4 20 8 15 12 -5
12 2 -3 41 -10 26 -34 88 -54 139 -65 168 -80 243 -81 393 0 122 2 140 24 183
38 79 92 94 204 56 128 -42 294 -149 418 -267 99 -94 146 -153 189 -239 16
-32 30 -51 30 -43 -1 33 -41 100 -101 170 -103 118 -127 149 -98 124 142 -120
171 -150 199 -208 35 -70 53 -167 45 -235 l-5 -46 20 40 c12 25 20 61 20 96 0
56 -13 89 -69 182 -21 33 -21 37 -5 31 11 -4 25 -11 32 -17 8 -6 12 -6 12 3 0
15 83 7 88 -9 2 -6 8 -11 14 -11 6 0 7 7 4 16 -6 15 0 16 43 10 27 -3 60 -2
74 3 20 8 27 7 32 -7 6 -15 8 -13 20 8 8 14 14 20 15 14 0 -5 7 -19 16 -30 14
-18 15 -18 8 5 -5 21 -4 23 12 16 24 -10 108 -7 142 6 22 8 25 8 15 -2 -23
-23 -14 -30 17 -14 38 20 51 19 43 -2 -6 -17 -5 -17 13 -1 19 17 94 52 94 44
0 -2 -20 -33 -45 -70 -55 -83 -67 -122 -63 -211 4 -77 9 -72 27 24 19 101 59
196 104 247 40 45 64 63 162 119 l50 29 -82 -88 c-107 -113 -141 -164 -153
-227 -15 -79 -11 -80 24 -4 41 88 136 215 218 291 114 105 359 249 444 261 88
12 130 -44 141 -187 9 -123 -19 -279 -87 -479 -47 -140 -54 -169 -39 -160 11
5 19 14 19 19 0 6 5 10 12 10 7 0 6 -6 -4 -17 -9 -10 -21 -29 -28 -43 l-13
-25 27 24 26 24 0 -24 c0 -61 -39 -163 -86 -225 l-24 -30 20 -39 c11 -22 20
-41 20 -42 0 -14 -44 7 -125 62 -96 64 -198 106 -254 104 -20 0 -15 -4 24 -18
70 -25 155 -69 259 -135 49 -31 93 -56 98 -56 5 0 26 -12 48 -26 56 -37 84
-28 32 11 -22 16 -38 33 -36 37 3 4 -7 25 -22 48 l-27 40 41 79 c39 78 46 103
56 224 4 47 2 57 -11 57 -11 0 -13 5 -8 18 30 69 78 224 96 312 16 75 22 142
23 235 1 148 -9 191 -57 231 -72 61 -196 14 -532 -201 -196 -125 -296 -179
-362 -193 -35 -8 -43 -7 -43 4 0 13 -4 13 -27 1 -39 -20 -126 -29 -156 -18
-14 5 -34 19 -45 31 -20 21 -20 21 -26 2 -12 -38 -100 -55 -162 -32 -20 8 -29
8 -35 -1 -8 -13 -65 -8 -129 11 -19 6 -80 46 -135 91 -55 44 -145 111 -200
148 -232 158 -367 209 -460 176z"/>
<path d="M2209 4316 l-24 -21 21 -21 21 -20 24 20 24 21 -21 21 -21 20 -24
-20z"/>
<path d="M776 4296 c-4 -17 -13 -26 -26 -26 -11 0 -20 -4 -20 -10 0 -5 9 -10
20 -10 11 0 26 -12 34 -27 14 -26 15 -26 16 -6 0 14 11 28 28 37 25 14 25 15
5 16 -14 0 -28 10 -36 26 l-14 27 -7 -27z"/>
<path d="M2065 4280 c-3 -5 1 -10 9 -10 9 0 16 5 16 10 0 6 -4 10 -9 10 -6 0
-13 -4 -16 -10z"/>
<path d="M2446 4244 c-4 -10 -1 -21 6 -26 19 -11 33 -4 33 18 0 24 -30 30 -39
8z"/>
<path d="M1435 4226 c-44 -44 -46 -196 -5 -351 26 -97 95 -241 149 -312 32
-42 39 -57 32 -75 -13 -35 7 -89 50 -133 42 -44 42 -45 -7 -120 -23 -35 -17
-32 81 41 87 64 218 139 279 160 38 13 45 19 35 30 -17 20 -3 44 25 44 23 0
25 2 16 26 -6 14 -10 60 -10 102 -1 135 -52 239 -189 384 -173 183 -383 277
-456 204z m223 -176 c112 -44 191 -97 233 -156 50 -68 58 -83 33 -63 -10 9
-30 22 -44 29 -23 12 -23 10 6 -21 32 -35 64 -89 64 -109 0 -7 -23 9 -51 34
-59 53 -131 89 -211 106 -72 14 -114 43 -155 104 -43 63 -42 74 3 34 41 -38
73 -57 94 -58 9 0 1 11 -18 26 -29 23 -92 116 -92 137 0 5 12 0 28 -11 15 -10
64 -33 110 -52z m-13 -245 c27 -13 64 -27 80 -31 29 -6 29 -6 -10 23 -22 16
-46 38 -54 47 -14 16 -12 17 25 11 135 -23 219 -85 249 -185 7 -24 7 -24 -11
-9 -33 28 -77 47 -129 53 l-50 7 35 -16 c40 -18 67 -42 82 -69 10 -18 9 -18
-13 -2 -13 9 -33 16 -44 16 -14 0 -9 -6 20 -23 36 -20 85 -77 85 -98 0 -5 -20
6 -43 24 -25 19 -72 41 -108 51 -35 10 -73 20 -83 23 -17 5 -16 1 7 -27 29
-34 61 -90 52 -90 -8 0 -167 202 -162 206 2 3 24 -5 48 -16 24 -11 51 -19 59
-19 8 0 2 6 -15 13 -16 7 -48 31 -71 52 -22 22 -32 33 -23 25 12 -9 6 8 -16
50 -19 35 -35 67 -35 70 0 4 17 -9 37 -28 21 -19 60 -45 88 -58z"/>
<path d="M2700 4234 c0 -21 -23 -47 -50 -57 -11 -3 -6 -8 13 -16 16 -6 31 -20
34 -32 6 -20 6 -20 20 1 12 17 21 20 41 15 26 -6 26 -6 9 13 -11 12 -15 26
-11 37 6 14 4 17 -9 12 -12 -4 -21 2 -31 21 -14 24 -15 25 -16 6z"/>
<path d="M3125 4230 c-4 -7 -3 -16 3 -22 14 -14 45 -2 40 15 -6 16 -34 21 -43
7z"/>
<path d="M3586 4225 c-58 -20 -140 -80 -239 -175 -136 -129 -221 -266 -231
-376 -5 -51 -9 -57 -84 -127 -29 -28 -50 -52 -48 -55 3 -2 29 9 59 25 42 23
53 26 50 13 -3 -10 6 -21 22 -30 25 -13 25 -15 9 -27 -20 -15 -20 -15 26 -33
59 -23 160 -89 263 -172 l97 -79 -26 54 -27 54 26 34 c14 19 33 54 43 77 17
45 15 53 -20 65 -5 2 12 30 39 63 107 131 185 356 185 536 0 158 -32 193 -144
153z m-14 -181 c-40 -26 -71 -48 -70 -50 2 -2 28 3 58 11 30 8 56 13 58 11 6
-6 -81 -77 -141 -113 -31 -20 -56 -37 -54 -39 1 -2 32 3 67 10 36 8 66 13 68
11 8 -7 -84 -56 -139 -73 l-64 -21 60 5 c48 4 55 2 36 -6 -13 -6 -21 -13 -18
-16 8 -8 105 24 146 49 l33 20 -11 -21 c-16 -31 -77 -77 -152 -117 -37 -19
-91 -51 -119 -70 l-52 -35 7 27 c3 16 16 39 28 52 23 25 12 22 -35 -11 -16
-11 -28 -17 -28 -13 0 14 34 72 59 99 l26 30 -30 -18 c-16 -10 -43 -32 -58
-50 -27 -30 -28 -30 -22 -6 13 49 58 114 133 192 88 92 154 143 220 169 74 29
73 22 -6 -27z m-42 -379 c0 -9 -87 -53 -137 -69 -28 -10 -70 -30 -92 -47 -45
-32 -50 -29 -22 14 28 43 59 60 151 84 95 24 100 25 100 18z"/>
<path d="M4356 4185 c-6 -25 -10 -27 -44 -21 l-37 6 24 -20 c21 -18 22 -22 9
-43 -15 -21 -14 -22 15 -22 27 0 32 -5 41 -34 l10 -34 11 39 c9 34 15 39 44
42 30 3 31 4 14 17 -17 13 -17 14 2 30 19 16 18 16 -18 10 -35 -6 -38 -4 -51
26 l-13 31 -7 -27z"/>
<path d="M1066 4122 c-2 -4 -1 -14 4 -22 7 -11 11 -12 25 0 13 10 13 15 3 21
-17 11 -26 11 -32 1z"/>
<path d="M2946 4122 c-3 -6 -1 -14 5 -17 15 -10 25 3 12 16 -7 7 -13 7 -17 1z"/>
<path d="M2310 4070 c0 -5 5 -10 10 -10 6 0 10 5 10 10 0 6 -4 10 -10 10 -5 0
-10 -4 -10 -10z"/>
<path d="M3961 3981 c-9 -6 -9 -11 2 -20 11 -9 17 -8 26 3 9 10 8 15 -2 19 -8
3 -19 2 -26 -2z"/>
<path d="M1190 3940 c0 -5 5 -10 10 -10 6 0 10 5 10 10 0 6 -4 10 -10 10 -5 0
-10 -4 -10 -10z"/>
<path d="M1096 3842 c-3 -6 -1 -14 5 -17 15 -10 25 3 12 16 -7 7 -13 7 -17 1z"/>
<path d="M701 3822 c-1 -34 -19 -62 -40 -62 -31 0 -32 -13 -1 -26 22 -10 30
-20 30 -39 0 -22 3 -24 19 -16 10 6 21 7 25 4 3 -3 6 6 6 20 0 19 8 31 28 41
l27 15 -32 7 c-24 5 -35 15 -47 43 -12 29 -15 32 -15 13z"/>
<path d="M3910 3806 c-10 -13 -10 -19 0 -31 11 -13 14 -13 27 1 14 14 14 17 1
30 -13 13 -16 13 -28 0z"/>
<path d="M4608 3785 c-2 -24 -10 -32 -38 -41 l-35 -12 36 -15 c25 -10 38 -23
43 -43 l7 -27 20 32 c11 18 29 35 40 38 27 7 24 19 -11 33 -16 7 -30 16 -30
19 0 4 -6 16 -14 26 -13 19 -14 18 -18 -10z"/>
<path d="M1195 3781 c-3 -5 -1 -12 5 -16 5 -3 10 1 10 9 0 18 -6 21 -15 7z"/>
<path d="M4140 3725 c0 -22 4 -26 23 -23 14 2 22 10 22 23 0 13 -8 21 -22 23
-19 3 -23 -1 -23 -23z"/>
<path d="M2572 3700 c0 -19 2 -27 5 -17 2 9 2 25 0 35 -3 9 -5 1 -5 -18z"/>
<path d="M502 3667 c-15 -17 1 -42 23 -33 18 6 17 37 -1 43 -6 2 -16 -2 -22
-10z"/>
<path d="M1077 3629 c-4 -15 -18 -29 -34 -35 l-28 -11 28 -8 c20 -5 30 -16 34
-36 l6 -29 16 32 c9 19 26 35 41 38 25 6 25 6 -8 18 -18 6 -36 21 -41 33 l-8
23 -6 -25z"/>
<path d="M3896 3633 c-12 -12 -6 -33 9 -33 8 0 15 6 15 14 0 17 -14 28 -24 19z"/>
<path d="M3810 3530 c0 -5 5 -10 10 -10 6 0 10 5 10 10 0 6 -4 10 -10 10 -5 0
-10 -4 -10 -10z"/>
<path d="M4095 3470 c3 -5 10 -10 16 -10 5 0 9 5 9 10 0 6 -7 10 -16 10 -8 0
-12 -4 -9 -10z"/>
<path d="M830 3437 c-14 -11 -14 -14 1 -29 16 -15 18 -15 32 0 13 14 13 19 1
30 -16 14 -15 14 -34 -1z"/>
<path d="M1260 3426 c0 -9 5 -16 10 -16 6 0 10 4 10 9 0 6 -4 13 -10 16 -5 3
-10 -1 -10 -9z"/>
<path d="M3932 3414 c-10 -11 -8 -15 7 -23 14 -8 20 -7 24 3 9 22 -15 37 -31
20z"/>
<path d="M4370 3412 c0 -14 -8 -26 -22 -31 -23 -9 -23 -9 5 -16 18 -5 27 -14
28 -29 0 -14 2 -16 6 -6 3 8 15 23 27 32 18 15 19 18 4 18 -10 0 -24 12 -32
28 -15 26 -15 26 -16 4z"/>
<path d="M1300 3380 c0 -5 5 -10 10 -10 6 0 10 5 10 10 0 6 -4 10 -10 10 -5 0
-10 -4 -10 -10z"/>
<path d="M4276 3372 c-3 -6 -1 -14 5 -17 15 -10 25 3 12 16 -7 7 -13 7 -17 1z"/>
<path d="M1211 3338 c-1 -9 -13 -26 -27 -37 -15 -12 -22 -21 -15 -21 6 0 20
-9 32 -21 20 -20 21 -20 26 -1 2 11 14 24 26 30 22 10 22 11 1 11 -12 1 -24
11 -31 29 -7 17 -11 21 -12 10z"/>
<path d="M1375 3340 c-3 -5 -1 -10 4 -10 6 0 11 5 11 10 0 6 -2 10 -4 10 -3 0
-8 -4 -11 -10z"/>
<path d="M4000 3310 c0 -5 5 -10 10 -10 6 0 10 5 10 10 0 6 -4 10 -10 10 -5 0
-10 -4 -10 -10z"/>
<path d="M955 3270 c4 -6 11 -8 16 -5 14 9 11 15 -7 15 -8 0 -12 -5 -9 -10z"/>
<path d="M1335 3270 c3 -5 8 -10 11 -10 2 0 4 5 4 10 0 6 -5 10 -11 10 -5 0
-7 -4 -4 -10z"/>
<path d="M3790 3270 c0 -5 5 -10 10 -10 6 0 10 5 10 10 0 6 -4 10 -10 10 -5 0
-10 -4 -10 -10z"/>
<path d="M2151 3201 c48 -30 104 -91 112 -123 4 -15 2 -17 -7 -9 -7 6 -15 8
-18 5 -3 -3 -9 0 -14 7 -5 8 -3 10 6 4 9 -5 11 -4 6 4 -4 6 -11 9 -16 6 -5 -3
-23 1 -41 10 -17 9 -33 14 -37 11 -3 -3 0 -6 6 -6 7 0 41 -30 77 -67 l64 -67
10 27 c6 16 11 41 11 56 0 29 -40 98 -52 90 -3 -2 -17 6 -30 17 -25 23 -97 64
-112 64 -6 0 10 -13 35 -29z m139 -105 c0 -12 -14 5 -31 39 -8 16 -6 15 10 -4
12 -13 21 -28 21 -35z"/>
<path d="M3078 3223 c7 -3 16 -2 19 1 4 3 -2 6 -13 5 -11 0 -14 -3 -6 -6z"/>
<path d="M527 3200 c-3 -13 -14 -20 -29 -20 -23 -1 -23 -1 5 -21 15 -11 27
-27 27 -35 0 -21 18 -17 25 5 3 11 15 23 26 26 18 6 17 9 -12 36 -17 16 -32
29 -34 29 -1 0 -5 -9 -8 -20z"/>
<path d="M2989 3195 c-25 -13 -68 -48 -94 -77 -26 -29 -42 -42 -35 -28 7 14
33 47 59 74 28 29 37 44 24 37 -30 -15 -101 -90 -109 -113 -3 -10 -9 -16 -13
-14 -4 3 -8 -13 -9 -35 -2 -32 1 -40 13 -36 9 4 12 1 8 -9 -11 -28 15 -13 63
39 27 28 60 60 74 70 24 17 24 17 -15 2 -21 -9 -48 -23 -59 -33 -18 -17 -18
-16 -3 14 20 40 79 92 131 115 23 10 34 18 26 18 -8 0 -36 -11 -61 -24z"/>
<path d="M3893 3164 l-22 -24 31 -31 c24 -23 33 -27 39 -17 5 7 9 16 9 20 0 4
9 10 21 13 20 7 19 8 -13 36 -18 15 -35 28 -38 28 -3 -1 -15 -12 -27 -25z"/>
<path d="M3715 3170 c-3 -5 1 -10 9 -10 9 0 16 5 16 10 0 6 -4 10 -9 10 -6 0
-13 -4 -16 -10z"/>
<path d="M4540 3150 c0 -5 5 -10 11 -10 5 0 7 5 4 10 -3 6 -8 10 -11 10 -2 0
-4 -4 -4 -10z"/>
<path d="M1410 3136 c0 -9 7 -16 16 -16 9 0 14 5 12 12 -6 18 -28 21 -28 4z"/>
<path d="M1280 3110 c0 -5 5 -10 10 -10 6 0 10 5 10 10 0 6 -4 10 -10 10 -5 0
-10 -4 -10 -10z"/>
<path d="M1054 3054 c-17 -19 -27 -34 -22 -34 5 0 19 -10 31 -23 l22 -23 25
30 26 31 -26 26 -25 27 -31 -34z"/>
<path d="M3610 3044 c0 -3 27 -37 60 -74 47 -53 57 -69 44 -74 -24 -9 -55 -7
-113 8 l-53 14 98 -100 c89 -89 94 -97 54 -74 -35 20 -59 26 -109 26 l-64 0
75 -77 c41 -43 82 -91 90 -108 18 -35 50 -137 44 -142 -2 -2 -16 17 -30 42
-39 65 -153 152 -173 131 -4 -3 7 -25 24 -49 56 -80 76 -118 59 -111 -9 3 -16
1 -16 -5 0 -6 -15 -11 -32 -11 -18 0 -39 -4 -45 -8 -7 -4 17 -6 53 -4 77 5 89
-2 141 -95 19 -35 37 -63 40 -63 7 0 -4 101 -13 124 -5 12 -2 15 10 10 14 -6
16 -1 10 37 -15 102 -57 198 -117 266 -22 25 -25 33 -13 33 26 0 82 -26 122
-57 l37 -27 -8 24 c-10 36 -63 123 -96 158 l-28 30 55 4 c30 3 57 7 60 11 9 9
-106 136 -138 153 -16 8 -28 12 -28 8z m104 -624 c8 -14 17 -36 20 -50 7 -23
6 -23 -14 5 -11 17 -32 53 -46 80 l-25 50 26 -30 c14 -16 32 -41 39 -55z"/>
<path d="M1410 3030 c0 -5 5 -10 10 -10 6 0 10 5 10 10 0 6 -4 10 -10 10 -5 0
-10 -4 -10 -10z"/>
<path d="M2711 2974 c-1 -62 23 -173 35 -161 3 2 -1 17 -7 33 -6 16 -15 67
-19 114 l-7 85 -2 -71z"/>
<path d="M2402 2970 c-1 -36 -8 -90 -16 -120 -19 -72 -12 -78 9 -7 10 35 15
81 12 124 l-3 68 -2 -65z"/>
<path d="M1967 2990 c-97 -31 -154 -65 -190 -114 -42 -56 -41 -62 4 -20 59 56
98 74 161 74 51 0 54 -2 108 -59 46 -48 67 -62 114 -75 93 -27 126 -77 126
-191 l0 -50 20 43 c17 37 60 166 60 179 0 2 -4 2 -9 -1 -4 -3 -13 12 -20 33
-6 22 -29 66 -51 99 -31 46 -53 67 -92 86 -67 34 -120 33 -231 -4z m189 -67
c-3 -16 -1 -35 4 -43 9 -13 14 -11 35 13 27 30 45 28 45 -4 0 -24 -59 -52 -87
-42 -33 11 -53 36 -53 63 0 33 7 40 37 40 22 0 24 -4 19 -27z"/>
<path d="M2924 2991 c-57 -33 -99 -91 -134 -182 l-22 -57 37 -93 c21 -52 41
-98 46 -103 5 -6 9 17 9 56 0 113 29 157 117 183 43 13 68 29 115 76 59 57 62
59 115 59 66 0 108 -17 164 -67 45 -39 38 -23 -15 35 -39 43 -68 58 -180 93
-122 38 -185 38 -252 0z m51 -41 c-3 -5 -12 -10 -18 -10 -7 0 -6 4 3 10 19 12
23 12 15 0z m69 -23 c17 -27 -23 -71 -68 -75 -57 -5 -97 38 -63 67 11 8 16 5
25 -14 16 -35 39 -31 57 11 15 37 31 40 49 11z"/>
<path d="M3884 3009 c-10 -17 13 -36 27 -22 12 12 4 33 -11 33 -5 0 -12 -5
-16 -11z"/>
<path d="M4172 3011 c-7 -4 -8 -12 -2 -21 8 -13 11 -13 25 1 14 14 14 17 2 22
-7 3 -19 2 -25 -2z"/>
<path d="M1300 2980 c0 -15 5 -20 18 -18 9 2 17 10 17 18 0 8 -8 16 -17 18
-13 2 -18 -3 -18 -18z"/>
<path d="M660 2960 c0 -5 5 -10 10 -10 6 0 10 5 10 10 0 6 -4 10 -10 10 -5 0
-10 -4 -10 -10z"/>
<path d="M3895 2880 c-4 -6 -3 -16 3 -22 6 -6 12 -6 17 2 4 6 3 16 -3 22 -6 6
-12 6 -17 -2z"/>
<path d="M1210 2870 c0 -5 7 -10 15 -10 8 0 15 5 15 10 0 6 -7 10 -15 10 -8 0
-15 -4 -15 -10z"/>
<path d="M1041 2854 c-2 -51 -23 -86 -65 -104 l-41 -18 30 -7 c41 -10 55 -23
75 -68 l17 -38 12 45 c11 46 27 61 80 76 25 7 24 8 -11 15 -43 8 -63 27 -82
81 -10 26 -15 32 -15 18z"/>
<path d="M4716 2846 c-4 -16 -15 -25 -38 -30 l-33 -7 37 -19 c26 -14 40 -30
48 -56 11 -33 14 -35 23 -18 15 30 38 44 71 45 l31 1 -33 12 c-39 13 -82 52
-82 71 0 25 -18 25 -24 1z"/>
<path d="M462 2838 c6 -18 28 -21 28 -4 0 9 -7 16 -16 16 -9 0 -14 -5 -12 -12z"/>
<path d="M4081 2833 c-1 -7 -10 -21 -22 -32 -17 -15 -18 -21 -7 -28 8 -4 22
-19 31 -33 13 -18 17 -20 17 -8 0 10 9 26 21 37 l21 19 -22 7 c-12 4 -25 16
-30 28 -5 12 -9 17 -9 10z"/>
<path d="M3830 2806 c0 -9 5 -16 10 -16 6 0 10 4 10 9 0 6 -4 13 -10 16 -5 3
-10 -1 -10 -9z"/>
<path d="M4299 2744 c-11 -14 -10 -18 6 -30 16 -12 21 -12 34 0 12 12 12 18 1
30 -16 20 -24 20 -41 0z"/>
<path d="M3950 2710 c0 -5 5 -10 10 -10 6 0 10 5 10 10 0 6 -4 10 -10 10 -5 0
-10 -4 -10 -10z"/>
<path d="M1747 2684 c-3 -3 -22 -12 -42 -18 -32 -11 -34 -14 -16 -19 15 -3 31
3 49 19 15 13 24 24 21 24 -3 0 -8 -3 -12 -6z"/>
<path d="M3403 2665 c15 -14 35 -25 43 -25 27 0 14 15 -29 32 l-42 18 28 -25z"/>
<path d="M694 2657 c-8 -9 -7 -16 3 -25 8 -8 13 -9 13 -2 0 5 7 10 16 10 14 0
14 2 0 15 -17 18 -18 18 -32 2z"/>
<path d="M4506 2613 c-11 -11 -6 -23 9 -23 8 0 15 4 15 9 0 13 -16 22 -24 14z"/>
<path d="M1941 2592 c67 -28 131 -74 188 -139 55 -62 68 -60 22 4 -58 80 -146
140 -219 149 l-37 5 46 -19z"/>
<path d="M3164 2600 c-46 -10 -93 -42 -149 -99 -65 -66 -80 -98 -19 -40 71 67
116 98 181 125 56 23 50 30 -13 14z"/>
<path d="M3991 2591 c-11 -7 -5 -41 8 -41 3 0 12 9 18 19 10 15 9 20 -1 24 -7
3 -18 2 -25 -2z"/>
<path d="M1316 2582 c-3 -6 -1 -14 5 -17 15 -10 25 3 12 16 -7 7 -13 7 -17 1z"/>
<path d="M1486 2573 c-6 -14 -5 -15 5 -6 7 7 10 15 7 18 -3 3 -9 -2 -12 -12z"/>
<path d="M1185 2570 c-8 -12 20 -24 35 -15 6 3 8 11 5 16 -8 12 -32 12 -40 -1z"/>
<path d="M842 2557 c-16 -19 10 -38 30 -23 15 11 15 13 -2 24 -14 8 -21 8 -28
-1z"/>
<path d="M3207 2546 c-85 -35 -161 -84 -232 -148 -46 -42 -65 -54 -73 -46 -18
18 -23 4 -10 -30 10 -27 9 -34 -7 -54 -11 -13 -13 -17 -5 -10 16 14 30 16 30
3 0 -4 -24 -23 -52 -42 l-53 -34 32 -3 c18 -2 41 2 53 8 11 6 20 7 20 3 -1
-20 -22 -37 -71 -54 -44 -16 -48 -19 -19 -15 19 2 43 7 53 11 13 6 16 3 11
-10 -4 -9 -34 -29 -68 -45 -63 -30 -63 -42 0 -15 51 21 40 -3 -15 -34 -68 -37
-231 -40 -231 -3 0 5 25 19 55 31 60 25 90 55 104 107 21 78 -19 121 -125 134
-95 12 -151 0 -186 -39 -58 -65 -27 -155 70 -198 72 -33 71 -32 47 -50 -30
-23 -150 -13 -203 17 -53 30 -65 55 -17 34 19 -8 40 -14 47 -13 7 0 -13 10
-45 22 -33 13 -64 31 -69 42 -9 16 -8 17 8 11 10 -4 33 -10 49 -12 21 -4 16 1
-19 15 -49 20 -66 35 -66 58 0 9 9 8 35 -3 57 -24 64 -15 8 11 -33 15 -53 30
-53 40 0 14 5 14 38 -5 l37 -22 -39 34 c-38 33 -39 36 -28 68 14 40 14 40 2
40 -6 0 -35 20 -65 45 -31 25 -70 52 -88 61 -41 21 -36 16 40 -40 111 -81 108
-124 -4 -53 -89 58 -134 80 -213 106 -89 30 -194 43 -255 32 l-50 -9 75 -1
c151 -3 283 -48 431 -147 81 -55 103 -79 32 -35 -50 31 -145 71 -166 71 -7 0
20 -14 58 -31 69 -29 171 -96 162 -105 -3 -3 -23 4 -46 15 -59 31 -64 25 -6
-7 35 -19 51 -34 53 -51 3 -22 -2 -19 -52 24 -31 26 -56 51 -56 55 0 17 -191
70 -267 75 l-78 5 69 -15 c72 -15 110 -41 137 -93 8 -15 18 -30 24 -34 5 -4
-1 -8 -15 -8 -14 0 -31 -4 -39 -9 -8 -5 4 -7 33 -4 37 5 46 3 46 -10 0 -9 7
-20 16 -25 14 -8 12 -10 -11 -16 -42 -11 -25 -16 19 -6 20 4 35 6 32 2 -4 -3
4 -16 16 -29 19 -21 20 -26 8 -34 -12 -9 -12 -10 3 -5 10 3 21 6 23 6 3 0 2 6
-1 13 -4 6 6 -4 21 -23 27 -33 403 -419 432 -444 7 -6 23 -21 34 -33 28 -30
38 -29 38 3 0 14 4 22 10 19 15 -9 62 29 184 150 120 120 216 228 216 243 0 5
7 13 16 16 9 4 14 13 10 22 -7 17 0 14 54 -23 l35 -25 -36 35 -36 35 28 27
c16 15 29 31 29 36 0 5 6 9 14 9 8 0 20 14 28 30 8 19 20 30 33 30 13 0 30 17
49 50 28 47 32 49 85 56 141 17 150 22 45 23 -70 1 -123 -5 -175 -18 -72 -19
-182 -64 -175 -72 2 -2 -16 -19 -41 -38 -43 -31 -45 -32 -38 -10 9 29 4 24 40
38 l30 11 -35 -6 -35 -6 20 22 c19 21 148 87 224 115 20 8 30 14 23 14 -7 1
-52 -15 -100 -34 -83 -33 -86 -33 -57 -9 64 54 198 111 326 139 52 11 57 14
28 14 -49 1 -172 -31 -266 -70 -43 -18 -88 -34 -100 -35 -12 -1 -43 -17 -68
-34 -60 -42 -57 -24 8 36 69 65 173 131 250 160 34 13 55 23 47 23 -8 0 -41
-10 -73 -23z m-162 -174 c-63 -54 -115 -92 -115 -85 0 13 38 46 80 72 36 21
51 27 35 13z m-432 -103 c62 -17 42 -29 -48 -29 -85 0 -108 11 -62 30 30 12
65 12 110 -1z m297 -42 c0 -15 -41 -37 -68 -37 -10 0 0 10 23 25 48 29 45 28
45 12z m-435 -97 c3 -6 -1 -7 -9 -4 -18 7 -21 14 -7 14 6 0 13 -4 16 -10z
m195 0 c0 -5 -7 -10 -16 -10 -8 0 -12 5 -9 10 3 6 10 10 16 10 5 0 9 -4 9 -10z
m-169 -190 c63 -11 111 -7 204 16 28 7 29 6 15 -11 -25 -30 -111 -65 -160 -65
-52 0 -116 27 -145 60 l-20 23 20 -6 c11 -3 50 -11 86 -17z"/>
<path d="M4038 2497 c-15 -11 -14 -14 3 -31 16 -16 19 -17 19 -4 0 9 5 18 11
20 7 2 6 8 -3 16 -11 9 -18 9 -30 -1z"/>
<path d="M3912 2469 c2 -6 8 -10 13 -10 5 0 11 4 13 10 2 6 -4 11 -13 11 -9 0
-15 -5 -13 -11z"/>
<path d="M1222 2389 l-21 -26 24 -23 c14 -13 26 -22 28 -19 1 2 10 14 20 25
18 21 17 23 -5 45 l-24 24 -22 -26z"/>
<path d="M4170 2395 c0 -9 5 -15 11 -13 6 2 11 8 11 13 0 5 -5 11 -11 13 -6 2
-11 -4 -11 -13z"/>
<path d="M4623 2388 c2 -7 10 -13 17 -13 7 0 15 6 18 13 2 7 -5 12 -18 12 -13
0 -20 -5 -17 -12z"/>
<path d="M1918 2383 c7 -3 16 -2 19 1 4 3 -2 6 -13 5 -11 0 -14 -3 -6 -6z"/>
<path d="M3551 2365 c-1 -6 17 -70 38 -142 42 -138 71 -273 71 -328 0 -18 6
-48 14 -66 40 -95 25 123 -20 291 -22 83 -101 270 -103 245z"/>
<path d="M686 2341 c-4 -5 -2 -12 3 -15 5 -4 12 -2 15 3 4 5 2 12 -3 15 -5 4
-12 2 -15 -3z"/>
<path d="M1611 2312 c-24 -48 -73 -211 -68 -226 2 -6 7 5 12 24 4 19 25 80 46
134 40 105 45 136 10 68z"/>
<path d="M970 2310 c0 -15 5 -20 18 -18 9 2 17 10 17 18 0 8 -8 16 -17 18 -13
2 -18 -3 -18 -18z"/>
<path d="M3933 2254 c-3 -8 -17 -21 -32 -29 -14 -8 -20 -14 -13 -15 7 0 23
-10 35 -22 l22 -23 25 25 25 25 -28 27 c-22 22 -29 25 -34 12z"/>
<path d="M1275 2165 l-20 -20 28 -29 c15 -16 27 -24 27 -18 0 6 8 19 19 29 18
18 18 19 -8 38 l-26 21 -20 -21z"/>
<path d="M3315 2170 c28 -118 35 -169 35 -260 0 -203 -37 -354 -140 -567 -32
-68 -57 -123 -54 -123 9 0 95 140 138 227 72 141 98 246 99 383 0 126 -26 260
-63 328 -15 27 -19 30 -15 12z"/>
<path d="M3796 2141 c-4 -5 -2 -12 3 -15 5 -4 12 -2 15 3 4 5 2 12 -3 15 -5 4
-12 2 -15 -3z"/>
<path d="M4397 2134 c-8 -8 1 -24 14 -24 5 0 9 7 9 15 0 15 -12 20 -23 9z"/>
<path d="M1808 2073 c-7 -32 -12 -107 -12 -168 1 -123 22 -204 95 -365 21 -47
64 -157 97 -245 58 -158 139 -332 148 -322 3 3 1 31 -5 63 -17 87 -13 94 18
37 31 -55 144 -205 179 -237 21 -18 21 -18 15 20 l-5 39 30 -30 c43 -42 242
-324 243 -344 1 -9 7 28 14 81 13 97 38 168 149 428 l36 85 -29 -35 c-48 -57
-121 -184 -148 -257 -15 -40 -27 -101 -30 -147 l-6 -79 -47 134 c-46 134 -68
184 -76 177 -2 -2 0 -20 5 -39 5 -19 12 -54 15 -79 6 -39 -2 -27 -52 80 -56
122 -148 276 -178 301 -12 9 -14 9 -10 -2 3 -8 10 -60 16 -117 5 -57 15 -113
21 -125 26 -55 -25 23 -78 118 -31 55 -93 161 -138 235 -105 171 -185 331
-221 440 -26 79 -28 97 -29 248 0 89 -1 162 -2 162 -1 0 -7 -26 -15 -57z"/>
<path d="M4161 2094 c-1 -12 -8 -27 -16 -34 -12 -10 -11 -16 8 -42 22 -29 22
-29 27 -6 4 16 15 25 35 29 l30 5 -31 8 c-20 4 -34 16 -41 34 -10 24 -11 24
-12 6z"/>
<path d="M3186 2045 c19 -129 23 -143 20 -65 -1 42 -8 85 -15 95 -10 17 -11
11 -5 -30z"/>
<path d="M1056 2023 c-4 -14 -16 -23 -29 -24 l-22 0 21 -11 c12 -5 27 -20 32
-32 10 -19 11 -19 11 -2 1 10 9 25 19 32 16 12 16 13 0 14 -9 0 -18 10 -20 23
l-4 22 -8 -22z"/>
<path d="M1290 1980 c0 -5 5 -10 10 -10 6 0 10 5 10 10 0 6 -4 10 -10 10 -5 0
-10 -4 -10 -10z"/>
<path d="M3840 1976 c0 -7 -10 -16 -22 -19 -22 -6 -22 -6 4 -27 31 -24 38 -25
38 -6 0 8 5 16 12 18 8 3 4 12 -10 26 -15 15 -22 17 -22 8z"/>
<path d="M2066 1933 c-4 -29 -5 -77 -1 -105 7 -55 34 -152 41 -145 2 2 -1 19
-7 38 -6 19 -14 86 -18 149 -6 108 -7 112 -15 63z"/>
<path d="M3553 1950 c83 -123 102 -196 81 -322 l-6 -37 -25 47 c-13 26 -32 58
-42 71 -18 23 -18 23 -25 -65 -3 -49 -10 -90 -15 -92 -5 -2 -7 -11 -4 -20 4
-15 -27 -192 -43 -244 -3 -10 -1 -18 5 -18 23 0 70 197 83 344 3 27 5 25 40
-33 20 -34 38 -59 41 -54 15 24 29 144 25 216 -4 78 -7 88 -40 133 -20 27 -49
60 -64 74 l-28 25 17 -25z"/>
<path d="M621 1948 c-1 -9 -8 -21 -16 -26 -14 -7 -13 -11 5 -27 11 -10 20 -13
20 -7 0 7 7 12 15 12 8 0 15 5 15 10 0 6 -4 10 -8 10 -5 0 -14 10 -20 23 -8
17 -11 18 -11 5z"/>
<path d="M1155 1940 c-3 -5 1 -10 10 -10 9 0 13 5 10 10 -3 6 -8 10 -10 10 -2
0 -7 -4 -10 -10z"/>
<path d="M3257 1885 c-9 -77 -44 -196 -46 -156 -1 16 -26 -25 -75 -120 -40
-79 -108 -202 -150 -274 -71 -120 -143 -272 -133 -281 4 -4 113 183 215 369
35 65 66 116 68 114 2 -2 -10 -40 -26 -86 -51 -138 -33 -133 30 9 103 230 136
347 128 450 -3 42 -4 40 -11 -25z"/>
<path d="M4350 1920 c0 -5 5 -10 11 -10 5 0 7 5 4 10 -3 6 -8 10 -11 10 -2 0
-4 -4 -4 -10z"/>
<path d="M3140 1850 c0 -16 -26 -97 -64 -205 -8 -20 -7 -20 8 -1 34 42 87 226
65 226 -5 0 -9 -9 -9 -20z"/>
<path d="M2000 1797 c0 -35 42 -161 74 -225 41 -79 58 -91 24 -17 -17 39 -46
115 -64 170 -20 61 -33 89 -34 72z"/>
<path d="M2206 1765 c12 -123 71 -261 202 -469 41 -67 88 -148 103 -181 35
-78 79 -229 79 -275 1 -31 4 -27 29 40 41 110 91 211 166 334 68 112 105 180
105 192 0 4 -22 -17 -50 -46 -27 -29 -50 -51 -50 -49 0 3 14 43 30 89 38 103
37 149 -1 76 l-25 -48 2 63 c4 72 5 76 -37 -95 -19 -74 -98 -275 -99 -250 0 7
20 69 45 140 25 70 44 134 43 143 -5 25 -119 -267 -125 -320 l-6 -50 -19 31
c-10 17 -16 35 -13 41 7 10 -83 226 -126 304 -15 28 -41 90 -58 139 l-29 88
-7 -65 c-4 -36 -4 -85 -1 -108 6 -41 6 -43 -9 -24 -33 42 -117 219 -136 288
l-19 72 6 -60z m263 -400 c35 -72 74 -152 88 -178 14 -27 23 -50 21 -52 -2 -2
-34 35 -70 83 -65 86 -112 165 -102 174 2 3 -2 31 -11 64 -8 32 -15 72 -14 89
0 29 1 28 13 -10 7 -22 41 -99 75 -170z"/>
<path d="M2931 1704 c-29 -64 -51 -126 -49 -138 2 -13 24 32 56 113 29 73 51
135 49 137 -2 3 -28 -48 -56 -112z"/>
<path d="M3853 1804 c-3 -8 -1 -20 6 -27 14 -14 47 15 37 32 -10 16 -36 13
-43 -5z"/>
<path d="M4419 1744 c-9 -11 -23 -14 -46 -11 -31 5 -32 4 -22 -14 7 -15 7 -24
-2 -35 -8 -10 -8 -14 0 -14 6 0 20 -9 32 -21 l21 -21 15 22 c10 14 22 20 34
17 24 -6 24 -5 -1 23 -13 15 -18 31 -14 46 7 28 2 30 -17 8z"/>
<path d="M1290 1740 c0 -5 5 -10 10 -10 6 0 10 5 10 10 0 6 -4 10 -10 10 -5 0
-10 -4 -10 -10z"/>
<path d="M1087 1706 c-7 -18 1 -26 25 -26 11 0 18 7 18 20 0 23 -35 28 -43 6z"/>
<path d="M1691 1694 c-2 -51 52 -225 102 -328 58 -120 188 -320 287 -441 34
-41 63 -75 66 -75 10 0 -33 70 -136 224 -168 251 -252 413 -301 581 -10 33
-18 50 -18 39z"/>
<path d="M3960 1690 c0 -5 5 -10 10 -10 6 0 10 5 10 10 0 6 -4 10 -10 10 -5 0
-10 -4 -10 -10z"/>
<path d="M910 1665 c0 -8 7 -15 15 -15 8 0 15 7 15 15 0 8 -7 15 -15 15 -8 0
-15 -7 -15 -15z"/>
<path d="M1245 1620 c-10 -17 12 -37 25 -24 8 8 6 15 -4 23 -10 9 -16 9 -21 1z"/>
<path d="M3716 1555 c-9 -14 -23 -25 -31 -25 -10 0 -3 -11 17 -29 18 -16 35
-25 37 -19 2 5 17 18 35 29 17 10 25 19 18 19 -7 0 -23 11 -36 25 l-24 25 -16
-25z"/>
<path d="M3998 1542 c-4 -14 -14 -22 -30 -23 l-23 0 22 -11 c13 -6 25 -20 29
-31 6 -19 7 -19 16 -3 5 10 19 21 31 26 l22 9 -21 6 c-12 4 -26 16 -31 28
l-10 21 -5 -22z"/>
<path d="M1058 1499 c-16 -37 -19 -39 -60 -39 l-43 0 33 -20 c39 -24 46 -38
33 -73 l-10 -26 34 20 c32 19 35 20 61 3 l26 -18 -7 33 c-6 29 -3 37 21 57
l29 23 -33 1 c-28 0 -35 5 -50 39 l-18 38 -16 -38z"/>
<path d="M1305 1490 c3 -5 8 -10 11 -10 2 0 4 5 4 10 0 6 -5 10 -11 10 -5 0
-7 -4 -4 -10z"/>
<path d="M3457 1420 c-22 -144 -67 -270 -161 -459 -20 -39 -34 -71 -31 -71 12
0 116 172 149 247 39 87 60 200 54 288 l-3 50 -8 -55z"/>
<path d="M3385 1390 c-9 -27 -69 -114 -125 -180 -132 -154 -293 -390 -278
-406 3 -2 22 22 43 53 53 80 200 276 219 292 8 7 1 -13 -16 -44 -48 -90 -26
-74 39 27 71 109 118 200 126 246 7 35 2 43 -8 12z"/>
<path d="M1374 1338 c-5 -8 -17 -19 -26 -24 -15 -8 -13 -13 17 -37 31 -24 35
-26 35 -9 0 10 5 23 12 30 10 10 8 17 -9 33 -17 18 -22 19 -29 7z"/>
<path d="M3793 1321 l-22 -28 27 -26 27 -25 27 27 26 28 -30 27 c-16 14 -31
26 -32 25 0 0 -11 -13 -23 -28z"/>
<path d="M3680 1330 c0 -5 5 -10 10 -10 6 0 10 5 10 10 0 6 -4 10 -10 10 -5 0
-10 -4 -10 -10z"/>
<path d="M1555 1320 c4 -6 11 -8 16 -5 14 9 11 15 -7 15 -8 0 -12 -5 -9 -10z"/>
<path d="M3610 1245 c0 -8 5 -15 10 -15 6 0 10 7 10 15 0 8 -4 15 -10 15 -5 0
-10 -7 -10 -15z"/>
<path d="M1177 1204 c-8 -8 1 -24 14 -24 5 0 9 7 9 15 0 15 -12 20 -23 9z"/>
<path d="M1455 1170 c-8 -14 3 -30 21 -30 8 0 14 9 14 20 0 21 -24 28 -35 10z"/>
<path d="M3021 1117 c-6 -6 -17 -12 -24 -12 -7 0 -12 -4 -12 -10 0 -5 -21 -39
-46 -75 -91 -128 -171 -271 -209 -372 -28 -77 -50 -171 -49 -209 0 -30 2 -28
15 19 36 137 104 275 234 478 83 129 114 183 108 190 -3 2 -10 -2 -17 -9z"/>
<path d="M3914 1097 c-7 -24 -17 -34 -43 -41 l-33 -9 33 -16 c20 -9 40 -30 49
-48 8 -18 17 -33 20 -33 3 0 10 15 15 33 7 21 21 38 44 49 l34 17 -34 9 c-21
5 -42 20 -55 39 l-20 31 -10 -31z"/>
<path d="M1252 1076 c-6 -14 -23 -28 -37 -32 -32 -8 -32 -18 0 -32 14 -6 31
-26 39 -44 10 -22 15 -27 15 -14 1 10 17 33 36 51 l34 33 -24 6 c-14 3 -31 18
-38 32 l-13 25 -12 -25z"/>
<path d="M1156 1081 c-4 -5 -2 -12 3 -15 5 -4 12 -2 15 3 4 5 2 12 -3 15 -5 4
-12 2 -15 -3z"/>
<path d="M3521 1049 c-17 -14 -19 -19 -8 -19 9 0 20 -6 24 -14 7 -12 11 -12
29 3 l21 17 -21 16 c-20 14 -23 14 -45 -3z"/>
<path d="M1375 1050 c-3 -5 -1 -10 4 -10 6 0 11 5 11 10 0 6 -2 10 -4 10 -3 0
-8 -4 -11 -10z"/>
<path d="M1614 949 c-10 -17 13 -36 27 -22 12 12 4 33 -11 33 -5 0 -12 -5 -16
-11z"/>
<path d="M3530 880 c0 -5 5 -10 10 -10 6 0 10 5 10 10 0 6 -4 10 -10 10 -5 0
-10 -4 -10 -10z"/>
<path d="M3190 835 c0 -8 7 -15 15 -15 8 0 15 7 15 15 0 8 -7 15 -15 15 -8 0
-15 -7 -15 -15z"/>
<path d="M2080 756 c0 -8 5 -18 10 -21 13 -8 42 14 34 26 -9 15 -44 10 -44 -5z"/>
<path d="M3475 761 c-7 -12 12 -24 25 -16 11 7 4 25 -10 25 -5 0 -11 -4 -15
-9z"/>
<path d="M3810 715 c0 -9 5 -15 11 -13 6 2 11 8 11 13 0 5 -5 11 -11 13 -6 2
-11 -4 -11 -13z"/>
<path d="M2030 490 c0 -15 5 -20 18 -18 9 2 17 10 17 18 0 8 -8 16 -17 18 -13
2 -18 -3 -18 -18z"/>
</g>
</svg>