<?xml version="1.0" encoding="UTF-8"?>
<svg version="1.1" xmlns="http://www.w3.org/2000/svg" width="48" height="48">
<path d="M0 0 C0.99 0 1.98 0 3 0 C3.02505615 0.7520874 3.0501123 1.5041748 3.07592773 2.27905273 C3.19150514 5.66539196 3.31440345 9.05142613 3.4375 12.4375 C3.47681641 13.62150391 3.51613281 14.80550781 3.55664062 16.02539062 C3.59853516 17.15009766 3.64042969 18.27480469 3.68359375 19.43359375 C3.72025146 20.47572021 3.75690918 21.51784668 3.79467773 22.59155273 C3.73515341 24.9499826 3.73515341 24.9499826 5 26 C6.63472882 26.08700342 8.27314055 26.10701063 9.91015625 26.09765625 C11.39418945 26.09282227 11.39418945 26.09282227 12.90820312 26.08789062 C14.46958008 26.07532227 14.46958008 26.07532227 16.0625 26.0625 C17.10728516 26.05798828 18.15207031 26.05347656 19.22851562 26.04882812 C21.8190666 26.03699913 24.40950559 26.02051689 27 26 C27.66 24.02 28.32 22.04 29 20 C29.99 20 30.98 20 32 20 C32.02689216 21.47906892 32.04634621 22.95827483 32.0625 24.4375 C32.07410156 25.26121094 32.08570313 26.08492187 32.09765625 26.93359375 C32 29 32 29 31 30 C28.79349344 30.10012401 26.58377614 30.1308118 24.375 30.1328125 C23.71290527 30.13376923 23.05081055 30.13472595 22.36865234 30.13571167 C20.96647039 30.13639326 19.5642853 30.13454042 18.16210938 30.13037109 C16.00904287 30.12502246 13.85618498 30.1303167 11.703125 30.13671875 C10.34374954 30.13605796 8.9843742 30.13477679 7.625 30.1328125 C6.37976563 30.13168457 5.13453125 30.13055664 3.8515625 30.12939453 C1 30 1 30 0 29 C-0.08775605 26.85441173 -0.10695219 24.70595579 -0.09765625 22.55859375 C-0.09443359 21.25341797 -0.09121094 19.94824219 -0.08789062 18.60351562 C-0.07953401 17.2148431 -0.07106905 15.82617123 -0.0625 14.4375 C-0.05748666 13.04492344 -0.05292347 11.65234519 -0.04882812 10.25976562 C-0.03699434 6.8398013 -0.0205088 3.41992156 0 0 Z " fill="#000000" transform="translate(8,15)"/>
<path d="M0 0 C0.66209473 -0.00095673 1.32418945 -0.00191345 2.00634766 -0.00289917 C3.40852961 -0.00358076 4.8107147 -0.00172792 6.21289062 0.00244141 C8.36595713 0.00779004 10.51881502 0.0024958 12.671875 -0.00390625 C14.03125046 -0.00324546 15.3906258 -0.00196429 16.75 0 C18.61785156 0.00169189 18.61785156 0.00169189 20.5234375 0.00341797 C23.375 0.1328125 23.375 0.1328125 24.375 1.1328125 C24.46258003 3.13246232 24.48196576 5.1351736 24.47265625 7.13671875 C24.46943359 8.35166016 24.46621094 9.56660156 24.46289062 10.81835938 C24.45032227 12.73745117 24.45032227 12.73745117 24.4375 14.6953125 C24.43298828 15.97857422 24.42847656 17.26183594 24.42382812 18.58398438 C24.41199545 21.76697272 24.39551068 24.94987012 24.375 28.1328125 C23.385 28.1328125 22.395 28.1328125 21.375 28.1328125 C21.34994385 27.44131104 21.3248877 26.74980957 21.29907227 26.03735352 C21.18347839 22.92313384 21.06058758 19.80924461 20.9375 16.6953125 C20.89818359 15.60669922 20.85886719 14.51808594 20.81835938 13.39648438 C20.77646484 12.36201172 20.73457031 11.32753906 20.69140625 10.26171875 C20.65474854 9.30338135 20.61809082 8.34504395 20.58032227 7.35766602 C20.61665576 5.16142325 20.61665576 5.16142325 19.375 4.1328125 C17.74027118 4.04580908 16.10185945 4.02580187 14.46484375 4.03515625 C12.98081055 4.03999023 12.98081055 4.03999023 11.46679688 4.04492188 C10.42587891 4.05330078 9.38496094 4.06167969 8.3125 4.0703125 C6.74532227 4.07708008 6.74532227 4.07708008 5.14648438 4.08398438 C2.5559334 4.09581337 -0.03450559 4.11229561 -2.625 4.1328125 C-3.285 5.4528125 -3.945 6.7728125 -4.625 8.1328125 C-5.615 8.1328125 -6.605 8.1328125 -7.625 8.1328125 C-7.66741723 5.79986475 -7.66592937 3.46578683 -7.625 1.1328125 C-5.74180732 -0.75038018 -2.50569863 0.00226965 0 0 Z " fill="#000000" transform="translate(15.625,3.8671875)"/>
<path d="M0 0 C1.65 0 3.3 0 5 0 C5 0.99 5 1.98 5 3 C4.34 3 3.68 3 3 3 C3 3.99 3 4.98 3 6 C7.62 6 12.24 6 17 6 C17 5.01 17 4.02 17 3 C14.03 3 11.06 3 8 3 C8 2.01 8 1.02 8 0 C11.96 0 15.92 0 20 0 C20 2.97 20 5.94 20 9 C13.4 9 6.8 9 0 9 C0 6.03 0 3.06 0 0 Z " fill="#000000" transform="translate(14,9)"/>
<path d="M0 0 C6.27 0 12.54 0 19 0 C19 0.99 19 1.98 19 3 C12.73 3 6.46 3 0 3 C0 2.01 0 1.02 0 0 Z " fill="#000000" transform="translate(14,21)"/>
<path d="M0 0 C4.95 0 9.9 0 15 0 C15 0.99 15 1.98 15 3 C10.05 3 5.1 3 0 3 C0 2.01 0 1.02 0 0 Z " fill="#000000" transform="translate(14,27)"/>
</svg>
